<svg xmlns="http://www.w3.org/2000/svg" viewBox="0 0 72 48" role="img" aria-label="Aymara Andean symbol">
  <rect width="72" height="48" rx="5" fill="#111827"/>
  <g transform="translate(12 4)">
    <rect width="8" height="8" fill="#e11d48"/>
    <rect x="8" width="8" height="8" fill="#f97316"/>
    <rect x="16" width="8" height="8" fill="#facc15"/>
    <rect x="24" width="8" height="8" fill="#22c55e"/>
    <rect x="32" width="8" height="8" fill="#2563eb"/>
    <rect x="40" width="8" height="8" fill="#7c3aed"/>
    <rect y="8" width="8" height="8" fill="#f97316"/>
    <rect x="8" y="8" width="8" height="8" fill="#facc15"/>
    <rect x="16" y="8" width="8" height="8" fill="#22c55e"/>
    <rect x="24" y="8" width="8" height="8" fill="#2563eb"/>
    <rect x="32" y="8" width="8" height="8" fill="#7c3aed"/>
    <rect x="40" y="8" width="8" height="8" fill="#e11d48"/>
    <rect y="16" width="8" height="8" fill="#facc15"/>
    <rect x="8" y="16" width="8" height="8" fill="#22c55e"/>
    <rect x="16" y="16" width="8" height="8" fill="#2563eb"/>
    <rect x="24" y="16" width="8" height="8" fill="#7c3aed"/>
    <rect x="32" y="16" width="8" height="8" fill="#e11d48"/>
    <rect x="40" y="16" width="8" height="8" fill="#f97316"/>
    <rect y="24" width="8" height="8" fill="#22c55e"/>
    <rect x="8" y="24" width="8" height="8" fill="#2563eb"/>
    <rect x="16" y="24" width="8" height="8" fill="#7c3aed"/>
    <rect x="24" y="24" width="8" height="8" fill="#e11d48"/>
    <rect x="32" y="24" width="8" height="8" fill="#f97316"/>
    <rect x="40" y="24" width="8" height="8" fill="#facc15"/>
    <rect y="32" width="8" height="8" fill="#2563eb"/>
    <rect x="8" y="32" width="8" height="8" fill="#7c3aed"/>
    <rect x="16" y="32" width="8" height="8" fill="#e11d48"/>
    <rect x="24" y="32" width="8" height="8" fill="#f97316"/>
    <rect x="32" y="32" width="8" height="8" fill="#facc15"/>
    <rect x="40" y="32" width="8" height="8" fill="#22c55e"/>
  </g>
</svg>
